<mxfile host="app.diagrams.net" modified="2023-03-29T15:16:00.280Z" agent="Mozilla/5.0 (Windows NT 10.0; Win64; x64) AppleWebKit/537.36 (KHTML, like Gecko) Chrome/111.0.0.0 Safari/537.36" etag="1ywQPW8MUGh4RZqoJ956" version="21.1.2" type="device">
  <diagram name="Page-1" id="bZ3-UlI_hQohyZicIiZp">
    <mxGraphModel dx="1295" dy="2584" grid="1" gridSize="10" guides="1" tooltips="1" connect="1" arrows="1" fold="1" page="1" pageScale="1" pageWidth="827" pageHeight="1169" math="0" shadow="0">
      <root>
        <mxCell id="0" />
        <mxCell id="1" parent="0" />
        <mxCell id="lhGBUYHMl0y7ZSXnE7WN-14" style="edgeStyle=orthogonalEdgeStyle;rounded=0;orthogonalLoop=1;jettySize=auto;html=1;entryX=0.5;entryY=0;entryDx=0;entryDy=0;" parent="1" source="tzjIKLnI3NLbFgxXQfzE-2" target="tzjIKLnI3NLbFgxXQfzE-4" edge="1">
          <mxGeometry relative="1" as="geometry">
            <mxPoint x="1200" y="-440" as="targetPoint" />
            <Array as="points">
              <mxPoint x="760" y="-540" />
            </Array>
          </mxGeometry>
        </mxCell>
        <mxCell id="lhGBUYHMl0y7ZSXnE7WN-15" style="edgeStyle=orthogonalEdgeStyle;rounded=0;orthogonalLoop=1;jettySize=auto;html=1;entryX=0.5;entryY=0;entryDx=0;entryDy=0;" parent="1" source="tzjIKLnI3NLbFgxXQfzE-2" target="tzjIKLnI3NLbFgxXQfzE-5" edge="1">
          <mxGeometry relative="1" as="geometry">
            <Array as="points">
              <mxPoint x="910" y="-500" />
            </Array>
          </mxGeometry>
        </mxCell>
        <mxCell id="lhGBUYHMl0y7ZSXnE7WN-16" style="edgeStyle=orthogonalEdgeStyle;rounded=0;orthogonalLoop=1;jettySize=auto;html=1;entryX=0.5;entryY=0;entryDx=0;entryDy=0;" parent="1" source="tzjIKLnI3NLbFgxXQfzE-2" target="tzjIKLnI3NLbFgxXQfzE-7" edge="1">
          <mxGeometry relative="1" as="geometry">
            <Array as="points">
              <mxPoint x="1210" y="-440" />
              <mxPoint x="1060" y="-440" />
            </Array>
          </mxGeometry>
        </mxCell>
        <mxCell id="lhGBUYHMl0y7ZSXnE7WN-17" style="edgeStyle=orthogonalEdgeStyle;rounded=0;orthogonalLoop=1;jettySize=auto;html=1;entryX=0.5;entryY=0;entryDx=0;entryDy=0;" parent="1" source="tzjIKLnI3NLbFgxXQfzE-2" target="tzjIKLnI3NLbFgxXQfzE-9" edge="1">
          <mxGeometry relative="1" as="geometry">
            <Array as="points">
              <mxPoint x="1240" y="-380" />
              <mxPoint x="1210" y="-380" />
            </Array>
          </mxGeometry>
        </mxCell>
        <mxCell id="lhGBUYHMl0y7ZSXnE7WN-18" style="edgeStyle=orthogonalEdgeStyle;rounded=0;orthogonalLoop=1;jettySize=auto;html=1;entryX=0.5;entryY=0;entryDx=0;entryDy=0;" parent="1" source="tzjIKLnI3NLbFgxXQfzE-2" target="tzjIKLnI3NLbFgxXQfzE-11" edge="1">
          <mxGeometry relative="1" as="geometry">
            <Array as="points">
              <mxPoint x="1260" y="-345" />
              <mxPoint x="1360" y="-345" />
            </Array>
          </mxGeometry>
        </mxCell>
        <mxCell id="lhGBUYHMl0y7ZSXnE7WN-19" style="edgeStyle=orthogonalEdgeStyle;rounded=0;orthogonalLoop=1;jettySize=auto;html=1;" parent="1" source="tzjIKLnI3NLbFgxXQfzE-2" edge="1">
          <mxGeometry relative="1" as="geometry">
            <mxPoint x="1500" y="-200" as="targetPoint" />
            <Array as="points">
              <mxPoint x="1280" y="-390" />
              <mxPoint x="1500" y="-390" />
            </Array>
          </mxGeometry>
        </mxCell>
        <mxCell id="lhGBUYHMl0y7ZSXnE7WN-20" style="edgeStyle=orthogonalEdgeStyle;rounded=0;orthogonalLoop=1;jettySize=auto;html=1;entryX=0.5;entryY=0;entryDx=0;entryDy=0;" parent="1" source="tzjIKLnI3NLbFgxXQfzE-2" target="tzjIKLnI3NLbFgxXQfzE-23" edge="1">
          <mxGeometry relative="1" as="geometry">
            <mxPoint x="1560" y="-380" as="targetPoint" />
            <Array as="points">
              <mxPoint x="1310" y="-430" />
              <mxPoint x="1660" y="-430" />
            </Array>
          </mxGeometry>
        </mxCell>
        <mxCell id="lhGBUYHMl0y7ZSXnE7WN-22" style="edgeStyle=orthogonalEdgeStyle;rounded=0;orthogonalLoop=1;jettySize=auto;html=1;entryX=0.5;entryY=0;entryDx=0;entryDy=0;" parent="1" source="tzjIKLnI3NLbFgxXQfzE-2" target="tzjIKLnI3NLbFgxXQfzE-26" edge="1">
          <mxGeometry relative="1" as="geometry">
            <Array as="points">
              <mxPoint x="1810" y="-500" />
            </Array>
          </mxGeometry>
        </mxCell>
        <mxCell id="vyoLGwG-AZZ3RjHnhdR7-1" style="edgeStyle=orthogonalEdgeStyle;rounded=0;orthogonalLoop=1;jettySize=auto;html=1;entryX=0.5;entryY=0;entryDx=0;entryDy=0;" edge="1" parent="1" source="tzjIKLnI3NLbFgxXQfzE-2" target="lhGBUYHMl0y7ZSXnE7WN-25">
          <mxGeometry relative="1" as="geometry">
            <mxPoint x="3232.3529411764707" y="-520" as="targetPoint" />
            <Array as="points">
              <mxPoint x="3230" y="-540" />
            </Array>
          </mxGeometry>
        </mxCell>
        <mxCell id="tzjIKLnI3NLbFgxXQfzE-2" value="AssemblerSimulator" style="rounded=1;whiteSpace=wrap;html=1;arcSize=0;fontSize=12;fontFamily=Verdana;" parent="1" vertex="1">
          <mxGeometry x="1190" y="-550" width="130" height="60" as="geometry" />
        </mxCell>
        <mxCell id="tzjIKLnI3NLbFgxXQfzE-4" value="ResetSourceCode" style="rounded=1;whiteSpace=wrap;html=1;arcSize=0;fontSize=12;fontFamily=Verdana;" parent="1" vertex="1">
          <mxGeometry x="700" y="-200" width="120" height="60" as="geometry" />
        </mxCell>
        <mxCell id="tzjIKLnI3NLbFgxXQfzE-5" value="ResetMemory" style="rounded=1;whiteSpace=wrap;html=1;arcSize=0;fontSize=12;fontFamily=Verdana;" parent="1" vertex="1">
          <mxGeometry x="850" y="-200" width="120" height="60" as="geometry" />
        </mxCell>
        <mxCell id="tzjIKLnI3NLbFgxXQfzE-7" value="DisplayMenu" style="rounded=1;whiteSpace=wrap;html=1;arcSize=0;fontSize=12;fontFamily=Verdana;" parent="1" vertex="1">
          <mxGeometry x="1000" y="-200" width="120" height="60" as="geometry" />
        </mxCell>
        <mxCell id="tzjIKLnI3NLbFgxXQfzE-9" value="GetMenuOption" style="rounded=1;whiteSpace=wrap;html=1;arcSize=0;fontSize=12;fontFamily=Verdana;" parent="1" vertex="1">
          <mxGeometry x="1150" y="-200" width="120" height="60" as="geometry" />
        </mxCell>
        <mxCell id="tzjIKLnI3NLbFgxXQfzE-16" style="edgeStyle=orthogonalEdgeStyle;rounded=0;orthogonalLoop=1;jettySize=auto;html=1;entryX=0.5;entryY=1;entryDx=0;entryDy=0;" parent="1" source="tzjIKLnI3NLbFgxXQfzE-11" target="tzjIKLnI3NLbFgxXQfzE-4" edge="1">
          <mxGeometry relative="1" as="geometry">
            <Array as="points">
              <mxPoint x="1330" y="-90" />
              <mxPoint x="760" y="-90" />
            </Array>
          </mxGeometry>
        </mxCell>
        <mxCell id="tzjIKLnI3NLbFgxXQfzE-22" style="edgeStyle=orthogonalEdgeStyle;rounded=0;orthogonalLoop=1;jettySize=auto;html=1;" parent="1" source="tzjIKLnI3NLbFgxXQfzE-11" target="tzjIKLnI3NLbFgxXQfzE-20" edge="1">
          <mxGeometry relative="1" as="geometry">
            <mxPoint x="1380" y="-40" as="targetPoint" />
            <Array as="points">
              <mxPoint x="1390" y="-90" />
              <mxPoint x="1490" y="-90" />
            </Array>
          </mxGeometry>
        </mxCell>
        <mxCell id="tzjIKLnI3NLbFgxXQfzE-11" value="LoadFile" style="rounded=1;whiteSpace=wrap;html=1;arcSize=0;fontSize=12;fontFamily=Verdana;" parent="1" vertex="1">
          <mxGeometry x="1300" y="-200" width="120" height="60" as="geometry" />
        </mxCell>
        <mxCell id="tzjIKLnI3NLbFgxXQfzE-20" value="DisplaySourceCode" style="rounded=1;whiteSpace=wrap;html=1;arcSize=0;fontSize=12;fontFamily=Verdana;" parent="1" vertex="1">
          <mxGeometry x="1447" y="-200" width="130" height="60" as="geometry" />
        </mxCell>
        <mxCell id="tzjIKLnI3NLbFgxXQfzE-25" style="edgeStyle=orthogonalEdgeStyle;rounded=0;orthogonalLoop=1;jettySize=auto;html=1;" parent="1" source="tzjIKLnI3NLbFgxXQfzE-23" target="tzjIKLnI3NLbFgxXQfzE-20" edge="1">
          <mxGeometry relative="1" as="geometry">
            <mxPoint x="1530" y="-130" as="targetPoint" />
            <Array as="points">
              <mxPoint x="1660" y="-90" />
              <mxPoint x="1540" y="-90" />
            </Array>
          </mxGeometry>
        </mxCell>
        <mxCell id="tzjIKLnI3NLbFgxXQfzE-23" value="EditSourceCode" style="rounded=1;whiteSpace=wrap;html=1;arcSize=0;fontSize=12;fontFamily=Verdana;" parent="1" vertex="1">
          <mxGeometry x="1600" y="-200" width="120" height="60" as="geometry" />
        </mxCell>
        <mxCell id="tzjIKLnI3NLbFgxXQfzE-28" style="edgeStyle=orthogonalEdgeStyle;rounded=0;orthogonalLoop=1;jettySize=auto;html=1;entryX=0.5;entryY=1;entryDx=0;entryDy=0;" parent="1" source="tzjIKLnI3NLbFgxXQfzE-26" target="tzjIKLnI3NLbFgxXQfzE-5" edge="1">
          <mxGeometry relative="1" as="geometry">
            <Array as="points">
              <mxPoint x="1770" y="-60" />
              <mxPoint x="910" y="-60" />
            </Array>
            <mxPoint x="904" y="-110" as="targetPoint" />
          </mxGeometry>
        </mxCell>
        <mxCell id="tzjIKLnI3NLbFgxXQfzE-29" style="edgeStyle=orthogonalEdgeStyle;rounded=0;orthogonalLoop=1;jettySize=auto;html=1;entryX=0.5;entryY=0;entryDx=0;entryDy=0;" parent="1" source="tzjIKLnI3NLbFgxXQfzE-26" target="tzjIKLnI3NLbFgxXQfzE-30" edge="1">
          <mxGeometry relative="1" as="geometry">
            <mxPoint x="1830" y="310" as="targetPoint" />
          </mxGeometry>
        </mxCell>
        <mxCell id="tzjIKLnI3NLbFgxXQfzE-42" style="edgeStyle=orthogonalEdgeStyle;rounded=0;orthogonalLoop=1;jettySize=auto;html=1;" parent="1" source="tzjIKLnI3NLbFgxXQfzE-26" target="tzjIKLnI3NLbFgxXQfzE-41" edge="1">
          <mxGeometry relative="1" as="geometry">
            <Array as="points">
              <mxPoint x="1850" y="-40" />
              <mxPoint x="2000" y="-40" />
            </Array>
          </mxGeometry>
        </mxCell>
        <mxCell id="tzjIKLnI3NLbFgxXQfzE-26" value="Assemble" style="rounded=1;whiteSpace=wrap;html=1;arcSize=0;fontSize=12;fontFamily=Verdana;" parent="1" vertex="1">
          <mxGeometry x="1750" y="-200" width="120" height="60" as="geometry" />
        </mxCell>
        <mxCell id="tzjIKLnI3NLbFgxXQfzE-31" style="edgeStyle=orthogonalEdgeStyle;rounded=0;orthogonalLoop=1;jettySize=auto;html=1;entryX=0.5;entryY=0;entryDx=0;entryDy=0;" parent="1" source="tzjIKLnI3NLbFgxXQfzE-30" edge="1" target="tzjIKLnI3NLbFgxXQfzE-32">
          <mxGeometry relative="1" as="geometry">
            <mxPoint x="1600" y="240" as="targetPoint" />
            <Array as="points">
              <mxPoint x="1680" y="150" />
              <mxPoint x="1610" y="150" />
            </Array>
          </mxGeometry>
        </mxCell>
        <mxCell id="tzjIKLnI3NLbFgxXQfzE-35" style="edgeStyle=orthogonalEdgeStyle;rounded=0;orthogonalLoop=1;jettySize=auto;html=1;entryX=0.5;entryY=0;entryDx=0;entryDy=0;" parent="1" source="tzjIKLnI3NLbFgxXQfzE-30" target="tzjIKLnI3NLbFgxXQfzE-36" edge="1">
          <mxGeometry relative="1" as="geometry">
            <mxPoint x="1750" y="230" as="targetPoint" />
          </mxGeometry>
        </mxCell>
        <mxCell id="tzjIKLnI3NLbFgxXQfzE-37" style="edgeStyle=orthogonalEdgeStyle;rounded=0;orthogonalLoop=1;jettySize=auto;html=1;entryX=0.5;entryY=0;entryDx=0;entryDy=0;" parent="1" source="tzjIKLnI3NLbFgxXQfzE-30" target="tzjIKLnI3NLbFgxXQfzE-38" edge="1">
          <mxGeometry relative="1" as="geometry">
            <mxPoint x="1880" y="230" as="targetPoint" />
            <Array as="points">
              <mxPoint x="1760" y="150" />
              <mxPoint x="1890" y="150" />
            </Array>
          </mxGeometry>
        </mxCell>
        <mxCell id="tzjIKLnI3NLbFgxXQfzE-30" value="PassOne" style="rounded=1;whiteSpace=wrap;html=1;arcSize=0;fontSize=12;fontFamily=Verdana;" parent="1" vertex="1">
          <mxGeometry x="1660" y="60" width="120" height="60" as="geometry" />
        </mxCell>
        <mxCell id="tzjIKLnI3NLbFgxXQfzE-33" style="edgeStyle=orthogonalEdgeStyle;rounded=0;orthogonalLoop=1;jettySize=auto;html=1;entryX=0.5;entryY=0;entryDx=0;entryDy=0;" parent="1" source="tzjIKLnI3NLbFgxXQfzE-32" target="tzjIKLnI3NLbFgxXQfzE-34" edge="1">
          <mxGeometry relative="1" as="geometry">
            <mxPoint x="1610" y="350" as="targetPoint" />
          </mxGeometry>
        </mxCell>
        <mxCell id="tzjIKLnI3NLbFgxXQfzE-32" value="ExtractLabel" style="rounded=1;whiteSpace=wrap;html=1;arcSize=0;fontSize=12;fontFamily=Verdana;" parent="1" vertex="1">
          <mxGeometry x="1550" y="240" width="120" height="60" as="geometry" />
        </mxCell>
        <mxCell id="tzjIKLnI3NLbFgxXQfzE-34" value="UpdateSymbolTable" style="rounded=1;whiteSpace=wrap;html=1;arcSize=0;fontSize=12;fontFamily=Verdana;" parent="1" vertex="1">
          <mxGeometry x="1550" y="390" width="120" height="60" as="geometry" />
        </mxCell>
        <mxCell id="tzjIKLnI3NLbFgxXQfzE-36" value="ExtractOpcode" style="rounded=1;whiteSpace=wrap;html=1;arcSize=0;fontSize=12;fontFamily=Verdana;" parent="1" vertex="1">
          <mxGeometry x="1691" y="240" width="120" height="60" as="geometry" />
        </mxCell>
        <mxCell id="tzjIKLnI3NLbFgxXQfzE-38" value="ExtractOperand" style="rounded=1;whiteSpace=wrap;html=1;arcSize=0;fontSize=12;fontFamily=Verdana;" parent="1" vertex="1">
          <mxGeometry x="1830" y="240" width="120" height="60" as="geometry" />
        </mxCell>
        <mxCell id="tzjIKLnI3NLbFgxXQfzE-41" value="PassTwo" style="rounded=1;whiteSpace=wrap;html=1;arcSize=0;fontSize=12;fontFamily=Verdana;" parent="1" vertex="1">
          <mxGeometry x="1940" y="60" width="120" height="60" as="geometry" />
        </mxCell>
        <mxCell id="lhGBUYHMl0y7ZSXnE7WN-44" style="edgeStyle=orthogonalEdgeStyle;rounded=0;orthogonalLoop=1;jettySize=auto;html=1;entryX=0.5;entryY=0;entryDx=0;entryDy=0;" parent="1" source="lhGBUYHMl0y7ZSXnE7WN-25" target="lhGBUYHMl0y7ZSXnE7WN-26" edge="1">
          <mxGeometry relative="1" as="geometry">
            <mxPoint x="2290" y="-170" as="targetPoint" />
            <Array as="points">
              <mxPoint x="2300" y="-190" />
            </Array>
          </mxGeometry>
        </mxCell>
        <mxCell id="lhGBUYHMl0y7ZSXnE7WN-45" style="edgeStyle=orthogonalEdgeStyle;rounded=0;orthogonalLoop=1;jettySize=auto;html=1;entryX=0.5;entryY=0;entryDx=0;entryDy=0;" parent="1" source="lhGBUYHMl0y7ZSXnE7WN-25" target="lhGBUYHMl0y7ZSXnE7WN-27" edge="1">
          <mxGeometry relative="1" as="geometry">
            <mxPoint x="2450" y="-170" as="targetPoint" />
          </mxGeometry>
        </mxCell>
        <mxCell id="lhGBUYHMl0y7ZSXnE7WN-46" style="edgeStyle=orthogonalEdgeStyle;rounded=0;orthogonalLoop=1;jettySize=auto;html=1;" parent="1" source="lhGBUYHMl0y7ZSXnE7WN-25" target="lhGBUYHMl0y7ZSXnE7WN-28" edge="1">
          <mxGeometry relative="1" as="geometry">
            <mxPoint x="2600" y="-150" as="targetPoint" />
            <Array as="points">
              <mxPoint x="2650" y="-150" />
            </Array>
          </mxGeometry>
        </mxCell>
        <mxCell id="lhGBUYHMl0y7ZSXnE7WN-47" style="edgeStyle=orthogonalEdgeStyle;rounded=0;orthogonalLoop=1;jettySize=auto;html=1;" parent="1" source="lhGBUYHMl0y7ZSXnE7WN-25" target="lhGBUYHMl0y7ZSXnE7WN-30" edge="1">
          <mxGeometry relative="1" as="geometry">
            <Array as="points">
              <mxPoint x="3190" y="-120" />
              <mxPoint x="2810" y="-120" />
            </Array>
          </mxGeometry>
        </mxCell>
        <mxCell id="lhGBUYHMl0y7ZSXnE7WN-48" style="edgeStyle=orthogonalEdgeStyle;rounded=0;orthogonalLoop=1;jettySize=auto;html=1;" parent="1" source="lhGBUYHMl0y7ZSXnE7WN-25" target="lhGBUYHMl0y7ZSXnE7WN-31" edge="1">
          <mxGeometry relative="1" as="geometry">
            <Array as="points">
              <mxPoint x="3200" y="-90" />
              <mxPoint x="2950" y="-90" />
            </Array>
          </mxGeometry>
        </mxCell>
        <mxCell id="lhGBUYHMl0y7ZSXnE7WN-49" style="edgeStyle=orthogonalEdgeStyle;rounded=0;orthogonalLoop=1;jettySize=auto;html=1;entryX=0.5;entryY=0;entryDx=0;entryDy=0;" parent="1" source="lhGBUYHMl0y7ZSXnE7WN-25" target="lhGBUYHMl0y7ZSXnE7WN-32" edge="1">
          <mxGeometry relative="1" as="geometry">
            <Array as="points">
              <mxPoint x="3210" y="-70" />
              <mxPoint x="3090" y="-70" />
            </Array>
          </mxGeometry>
        </mxCell>
        <mxCell id="lhGBUYHMl0y7ZSXnE7WN-50" style="edgeStyle=orthogonalEdgeStyle;rounded=0;orthogonalLoop=1;jettySize=auto;html=1;entryX=0.5;entryY=0;entryDx=0;entryDy=0;" parent="1" source="lhGBUYHMl0y7ZSXnE7WN-25" target="lhGBUYHMl0y7ZSXnE7WN-33" edge="1">
          <mxGeometry relative="1" as="geometry" />
        </mxCell>
        <mxCell id="lhGBUYHMl0y7ZSXnE7WN-51" style="edgeStyle=orthogonalEdgeStyle;rounded=0;orthogonalLoop=1;jettySize=auto;html=1;" parent="1" source="lhGBUYHMl0y7ZSXnE7WN-25" target="lhGBUYHMl0y7ZSXnE7WN-34" edge="1">
          <mxGeometry relative="1" as="geometry">
            <Array as="points">
              <mxPoint x="3250" y="-60" />
              <mxPoint x="3370" y="-60" />
            </Array>
          </mxGeometry>
        </mxCell>
        <mxCell id="lhGBUYHMl0y7ZSXnE7WN-52" style="edgeStyle=orthogonalEdgeStyle;rounded=0;orthogonalLoop=1;jettySize=auto;html=1;" parent="1" source="lhGBUYHMl0y7ZSXnE7WN-25" target="lhGBUYHMl0y7ZSXnE7WN-35" edge="1">
          <mxGeometry relative="1" as="geometry">
            <Array as="points">
              <mxPoint x="3260" y="-80" />
              <mxPoint x="3510" y="-80" />
            </Array>
          </mxGeometry>
        </mxCell>
        <mxCell id="lhGBUYHMl0y7ZSXnE7WN-53" style="edgeStyle=orthogonalEdgeStyle;rounded=0;orthogonalLoop=1;jettySize=auto;html=1;" parent="1" source="lhGBUYHMl0y7ZSXnE7WN-25" target="lhGBUYHMl0y7ZSXnE7WN-36" edge="1">
          <mxGeometry relative="1" as="geometry">
            <Array as="points">
              <mxPoint x="3270" y="-100" />
              <mxPoint x="3650" y="-100" />
            </Array>
          </mxGeometry>
        </mxCell>
        <mxCell id="lhGBUYHMl0y7ZSXnE7WN-54" style="edgeStyle=orthogonalEdgeStyle;rounded=0;orthogonalLoop=1;jettySize=auto;html=1;" parent="1" source="lhGBUYHMl0y7ZSXnE7WN-25" target="lhGBUYHMl0y7ZSXnE7WN-37" edge="1">
          <mxGeometry relative="1" as="geometry">
            <Array as="points">
              <mxPoint x="3280" y="-120" />
              <mxPoint x="3790" y="-120" />
            </Array>
          </mxGeometry>
        </mxCell>
        <mxCell id="lhGBUYHMl0y7ZSXnE7WN-55" style="edgeStyle=orthogonalEdgeStyle;rounded=0;orthogonalLoop=1;jettySize=auto;html=1;entryX=0.5;entryY=0;entryDx=0;entryDy=0;" parent="1" source="lhGBUYHMl0y7ZSXnE7WN-25" target="lhGBUYHMl0y7ZSXnE7WN-38" edge="1">
          <mxGeometry relative="1" as="geometry">
            <Array as="points">
              <mxPoint x="3930" y="-150" />
            </Array>
          </mxGeometry>
        </mxCell>
        <mxCell id="lhGBUYHMl0y7ZSXnE7WN-56" style="edgeStyle=orthogonalEdgeStyle;rounded=0;orthogonalLoop=1;jettySize=auto;html=1;entryX=0.5;entryY=0;entryDx=0;entryDy=0;" parent="1" source="lhGBUYHMl0y7ZSXnE7WN-25" target="lhGBUYHMl0y7ZSXnE7WN-39" edge="1">
          <mxGeometry relative="1" as="geometry">
            <mxPoint x="4222.35294117647" y="-170" as="targetPoint" />
            <Array as="points">
              <mxPoint x="4070" y="-170" />
            </Array>
          </mxGeometry>
        </mxCell>
        <mxCell id="lhGBUYHMl0y7ZSXnE7WN-58" style="edgeStyle=orthogonalEdgeStyle;rounded=0;orthogonalLoop=1;jettySize=auto;html=1;entryX=0.5;entryY=0;entryDx=0;entryDy=0;" parent="1" source="lhGBUYHMl0y7ZSXnE7WN-25" target="lhGBUYHMl0y7ZSXnE7WN-40" edge="1">
          <mxGeometry relative="1" as="geometry">
            <Array as="points">
              <mxPoint x="4210" y="-190" />
            </Array>
          </mxGeometry>
        </mxCell>
        <mxCell id="lhGBUYHMl0y7ZSXnE7WN-25" value="Execute" style="rounded=1;whiteSpace=wrap;html=1;arcSize=0;fontSize=12;fontFamily=Verdana;" parent="1" vertex="1">
          <mxGeometry x="3170" y="-200" width="120" height="60" as="geometry" />
        </mxCell>
        <mxCell id="lhGBUYHMl0y7ZSXnE7WN-43" style="edgeStyle=orthogonalEdgeStyle;rounded=0;orthogonalLoop=1;jettySize=auto;html=1;entryX=0.5;entryY=0;entryDx=0;entryDy=0;" parent="1" source="lhGBUYHMl0y7ZSXnE7WN-26" target="lhGBUYHMl0y7ZSXnE7WN-42" edge="1">
          <mxGeometry relative="1" as="geometry">
            <Array as="points">
              <mxPoint x="2350" y="180" />
              <mxPoint x="2420" y="180" />
            </Array>
          </mxGeometry>
        </mxCell>
        <mxCell id="lhGBUYHMl0y7ZSXnE7WN-26" value="SetFlags" style="rounded=1;whiteSpace=wrap;html=1;arcSize=0;fontSize=12;fontFamily=Verdana;" parent="1" vertex="1">
          <mxGeometry x="2240" y="60" width="120" height="60" as="geometry" />
        </mxCell>
        <mxCell id="lhGBUYHMl0y7ZSXnE7WN-27" value="DisplayFrameDelimiter" style="rounded=1;whiteSpace=wrap;html=1;arcSize=0;fontSize=12;fontFamily=Verdana;" parent="1" vertex="1">
          <mxGeometry x="2380" y="60" width="170" height="60" as="geometry" />
        </mxCell>
        <mxCell id="lhGBUYHMl0y7ZSXnE7WN-59" style="edgeStyle=orthogonalEdgeStyle;rounded=0;orthogonalLoop=1;jettySize=auto;html=1;entryX=0.5;entryY=0;entryDx=0;entryDy=0;" parent="1" source="lhGBUYHMl0y7ZSXnE7WN-28" target="lhGBUYHMl0y7ZSXnE7WN-60" edge="1">
          <mxGeometry relative="1" as="geometry">
            <mxPoint x="2650" y="250" as="targetPoint" />
            <Array as="points">
              <mxPoint x="2650" y="200" />
              <mxPoint x="2580" y="200" />
            </Array>
          </mxGeometry>
        </mxCell>
        <mxCell id="lhGBUYHMl0y7ZSXnE7WN-61" style="edgeStyle=orthogonalEdgeStyle;rounded=0;orthogonalLoop=1;jettySize=auto;html=1;entryX=0.5;entryY=0;entryDx=0;entryDy=0;" parent="1" source="lhGBUYHMl0y7ZSXnE7WN-28" target="lhGBUYHMl0y7ZSXnE7WN-62" edge="1">
          <mxGeometry relative="1" as="geometry">
            <mxPoint x="2690" y="200" as="targetPoint" />
            <Array as="points">
              <mxPoint x="2700" y="180" />
              <mxPoint x="2720" y="180" />
            </Array>
          </mxGeometry>
        </mxCell>
        <mxCell id="lhGBUYHMl0y7ZSXnE7WN-64" style="edgeStyle=orthogonalEdgeStyle;rounded=0;orthogonalLoop=1;jettySize=auto;html=1;entryX=0.5;entryY=1;entryDx=0;entryDy=0;" parent="1" source="lhGBUYHMl0y7ZSXnE7WN-28" target="lhGBUYHMl0y7ZSXnE7WN-27" edge="1">
          <mxGeometry relative="1" as="geometry">
            <Array as="points">
              <mxPoint x="2620" y="170" />
              <mxPoint x="2465" y="170" />
            </Array>
          </mxGeometry>
        </mxCell>
        <mxCell id="lhGBUYHMl0y7ZSXnE7WN-28" value="DisplayCurrentState" style="rounded=1;whiteSpace=wrap;html=1;arcSize=0;fontSize=12;fontFamily=Verdana;" parent="1" vertex="1">
          <mxGeometry x="2570" y="60" width="160" height="60" as="geometry" />
        </mxCell>
        <mxCell id="lhGBUYHMl0y7ZSXnE7WN-72" style="edgeStyle=orthogonalEdgeStyle;rounded=0;orthogonalLoop=1;jettySize=auto;html=1;" parent="1" source="lhGBUYHMl0y7ZSXnE7WN-30" edge="1">
          <mxGeometry relative="1" as="geometry">
            <mxPoint x="2320" y="120" as="targetPoint" />
            <Array as="points">
              <mxPoint x="2810" y="490" />
              <mxPoint x="2320" y="490" />
            </Array>
          </mxGeometry>
        </mxCell>
        <mxCell id="lhGBUYHMl0y7ZSXnE7WN-30" value="ExecuteLDA" style="rounded=1;whiteSpace=wrap;html=1;arcSize=0;fontSize=12;fontFamily=Verdana;" parent="1" vertex="1">
          <mxGeometry x="2750" y="60" width="120" height="60" as="geometry" />
        </mxCell>
        <mxCell id="lhGBUYHMl0y7ZSXnE7WN-31" value="ExecuteSTA" style="rounded=1;whiteSpace=wrap;html=1;arcSize=0;fontSize=12;fontFamily=Verdana;" parent="1" vertex="1">
          <mxGeometry x="2890" y="60" width="120" height="60" as="geometry" />
        </mxCell>
        <mxCell id="lhGBUYHMl0y7ZSXnE7WN-73" style="edgeStyle=orthogonalEdgeStyle;rounded=0;orthogonalLoop=1;jettySize=auto;html=1;" parent="1" source="lhGBUYHMl0y7ZSXnE7WN-32" edge="1">
          <mxGeometry relative="1" as="geometry">
            <mxPoint x="2300" y="120" as="targetPoint" />
            <Array as="points">
              <mxPoint x="3090" y="510" />
              <mxPoint x="2300" y="510" />
            </Array>
          </mxGeometry>
        </mxCell>
        <mxCell id="lhGBUYHMl0y7ZSXnE7WN-32" value="ExecuteLDAimm" style="rounded=1;whiteSpace=wrap;html=1;arcSize=0;fontSize=12;fontFamily=Verdana;" parent="1" vertex="1">
          <mxGeometry x="3030" y="60" width="120" height="60" as="geometry" />
        </mxCell>
        <mxCell id="lhGBUYHMl0y7ZSXnE7WN-75" style="edgeStyle=orthogonalEdgeStyle;rounded=0;orthogonalLoop=1;jettySize=auto;html=1;entryX=0.5;entryY=0;entryDx=0;entryDy=0;" parent="1" source="lhGBUYHMl0y7ZSXnE7WN-33" target="lhGBUYHMl0y7ZSXnE7WN-74" edge="1">
          <mxGeometry relative="1" as="geometry">
            <Array as="points">
              <mxPoint x="3280" y="210" />
              <mxPoint x="3280" y="210" />
            </Array>
          </mxGeometry>
        </mxCell>
        <mxCell id="lhGBUYHMl0y7ZSXnE7WN-77" style="edgeStyle=orthogonalEdgeStyle;rounded=0;orthogonalLoop=1;jettySize=auto;html=1;" parent="1" source="lhGBUYHMl0y7ZSXnE7WN-33" target="lhGBUYHMl0y7ZSXnE7WN-26" edge="1">
          <mxGeometry relative="1" as="geometry">
            <mxPoint x="3190" y="122" as="sourcePoint" />
            <Array as="points">
              <mxPoint x="3180" y="530" />
              <mxPoint x="2280" y="530" />
            </Array>
          </mxGeometry>
        </mxCell>
        <mxCell id="lhGBUYHMl0y7ZSXnE7WN-80" style="edgeStyle=orthogonalEdgeStyle;rounded=0;orthogonalLoop=1;jettySize=auto;html=1;exitX=0.5;exitY=1;exitDx=0;exitDy=0;" parent="1" source="lhGBUYHMl0y7ZSXnE7WN-33" target="lhGBUYHMl0y7ZSXnE7WN-42" edge="1">
          <mxGeometry relative="1" as="geometry">
            <mxPoint x="2450" y="320" as="targetPoint" />
            <Array as="points">
              <mxPoint x="3230" y="190" />
              <mxPoint x="3200" y="190" />
              <mxPoint x="3200" y="550" />
              <mxPoint x="2410" y="550" />
              <mxPoint x="2410" y="360" />
              <mxPoint x="2440" y="360" />
            </Array>
          </mxGeometry>
        </mxCell>
        <mxCell id="lhGBUYHMl0y7ZSXnE7WN-33" value="ExecuteADD" style="rounded=1;whiteSpace=wrap;html=1;arcSize=0;fontSize=12;fontFamily=Verdana;" parent="1" vertex="1">
          <mxGeometry x="3170" y="60" width="120" height="60" as="geometry" />
        </mxCell>
        <mxCell id="lhGBUYHMl0y7ZSXnE7WN-34" value="ExecuteJMP" style="rounded=1;whiteSpace=wrap;html=1;arcSize=0;fontSize=12;fontFamily=Verdana;" parent="1" vertex="1">
          <mxGeometry x="3310" y="60" width="120" height="60" as="geometry" />
        </mxCell>
        <mxCell id="lhGBUYHMl0y7ZSXnE7WN-82" style="edgeStyle=orthogonalEdgeStyle;rounded=0;orthogonalLoop=1;jettySize=auto;html=1;entryX=0.5;entryY=0;entryDx=0;entryDy=0;" parent="1" source="lhGBUYHMl0y7ZSXnE7WN-35" target="lhGBUYHMl0y7ZSXnE7WN-81" edge="1">
          <mxGeometry relative="1" as="geometry" />
        </mxCell>
        <mxCell id="lhGBUYHMl0y7ZSXnE7WN-35" value="ExecuteJSR" style="rounded=1;whiteSpace=wrap;html=1;arcSize=0;fontSize=12;fontFamily=Verdana;" parent="1" vertex="1">
          <mxGeometry x="3450" y="60" width="120" height="60" as="geometry" />
        </mxCell>
        <mxCell id="lhGBUYHMl0y7ZSXnE7WN-83" style="edgeStyle=orthogonalEdgeStyle;rounded=0;orthogonalLoop=1;jettySize=auto;html=1;" parent="1" source="lhGBUYHMl0y7ZSXnE7WN-36" edge="1">
          <mxGeometry relative="1" as="geometry">
            <mxPoint x="2260" y="120" as="targetPoint" />
            <Array as="points">
              <mxPoint x="3650" y="570" />
              <mxPoint x="2260" y="570" />
              <mxPoint x="2260" y="120" />
            </Array>
          </mxGeometry>
        </mxCell>
        <mxCell id="lhGBUYHMl0y7ZSXnE7WN-36" value="ExecuteCMPimm" style="rounded=1;whiteSpace=wrap;html=1;arcSize=0;fontSize=12;fontFamily=Verdana;" parent="1" vertex="1">
          <mxGeometry x="3590" y="60" width="120" height="60" as="geometry" />
        </mxCell>
        <mxCell id="lhGBUYHMl0y7ZSXnE7WN-85" style="edgeStyle=orthogonalEdgeStyle;rounded=0;orthogonalLoop=1;jettySize=auto;html=1;entryX=0.5;entryY=1;entryDx=0;entryDy=0;" parent="1" source="lhGBUYHMl0y7ZSXnE7WN-37" target="lhGBUYHMl0y7ZSXnE7WN-62" edge="1">
          <mxGeometry relative="1" as="geometry">
            <mxPoint x="3790" y="360" as="targetPoint" />
            <Array as="points">
              <mxPoint x="3790" y="350" />
              <mxPoint x="2720" y="350" />
            </Array>
          </mxGeometry>
        </mxCell>
        <mxCell id="lhGBUYHMl0y7ZSXnE7WN-37" value="ExecuteBEQ" style="rounded=1;whiteSpace=wrap;html=1;arcSize=0;fontSize=12;fontFamily=Verdana;" parent="1" vertex="1">
          <mxGeometry x="3730" y="60" width="120" height="60" as="geometry" />
        </mxCell>
        <mxCell id="vyoLGwG-AZZ3RjHnhdR7-2" style="edgeStyle=orthogonalEdgeStyle;rounded=0;orthogonalLoop=1;jettySize=auto;html=1;entryX=0;entryY=0.75;entryDx=0;entryDy=0;" edge="1" parent="1" source="lhGBUYHMl0y7ZSXnE7WN-38" target="lhGBUYHMl0y7ZSXnE7WN-26">
          <mxGeometry relative="1" as="geometry">
            <mxPoint x="3900" y="610" as="targetPoint" />
            <Array as="points">
              <mxPoint x="3900" y="590" />
              <mxPoint x="2210" y="590" />
              <mxPoint x="2210" y="105" />
            </Array>
          </mxGeometry>
        </mxCell>
        <mxCell id="vyoLGwG-AZZ3RjHnhdR7-3" style="edgeStyle=orthogonalEdgeStyle;rounded=0;orthogonalLoop=1;jettySize=auto;html=1;entryX=0.25;entryY=1;entryDx=0;entryDy=0;" edge="1" parent="1" source="lhGBUYHMl0y7ZSXnE7WN-38" target="lhGBUYHMl0y7ZSXnE7WN-42">
          <mxGeometry relative="1" as="geometry">
            <mxPoint x="3930" y="620" as="targetPoint" />
            <Array as="points">
              <mxPoint x="3930" y="610" />
              <mxPoint x="2390" y="610" />
            </Array>
          </mxGeometry>
        </mxCell>
        <mxCell id="vyoLGwG-AZZ3RjHnhdR7-4" style="edgeStyle=orthogonalEdgeStyle;rounded=0;orthogonalLoop=1;jettySize=auto;html=1;entryX=0.5;entryY=1;entryDx=0;entryDy=0;" edge="1" parent="1" source="lhGBUYHMl0y7ZSXnE7WN-38" target="lhGBUYHMl0y7ZSXnE7WN-74">
          <mxGeometry relative="1" as="geometry">
            <mxPoint x="3960" y="390" as="targetPoint" />
            <Array as="points">
              <mxPoint x="3960" y="390" />
              <mxPoint x="3280" y="390" />
            </Array>
          </mxGeometry>
        </mxCell>
        <mxCell id="lhGBUYHMl0y7ZSXnE7WN-38" value="ExecuteSUB" style="rounded=1;whiteSpace=wrap;html=1;arcSize=0;fontSize=12;fontFamily=Verdana;" parent="1" vertex="1">
          <mxGeometry x="3870" y="60" width="120" height="60" as="geometry" />
        </mxCell>
        <mxCell id="lhGBUYHMl0y7ZSXnE7WN-39" value="ExecuteSKP" style="rounded=1;whiteSpace=wrap;html=1;arcSize=0;fontSize=12;fontFamily=Verdana;" parent="1" vertex="1">
          <mxGeometry x="4010" y="60" width="120" height="60" as="geometry" />
        </mxCell>
        <mxCell id="lhGBUYHMl0y7ZSXnE7WN-40" value="ExecuteRTN" style="rounded=1;whiteSpace=wrap;html=1;arcSize=0;fontSize=12;fontFamily=Verdana;" parent="1" vertex="1">
          <mxGeometry x="4150" y="60" width="120" height="60" as="geometry" />
        </mxCell>
        <mxCell id="lhGBUYHMl0y7ZSXnE7WN-42" value="ConvertToDecimal" style="rounded=1;whiteSpace=wrap;html=1;arcSize=0;fontSize=12;fontFamily=Verdana;" parent="1" vertex="1">
          <mxGeometry x="2360" y="240" width="120" height="60" as="geometry" />
        </mxCell>
        <mxCell id="lhGBUYHMl0y7ZSXnE7WN-68" style="edgeStyle=orthogonalEdgeStyle;rounded=0;orthogonalLoop=1;jettySize=auto;html=1;entryX=0.5;entryY=0;entryDx=0;entryDy=0;" parent="1" source="lhGBUYHMl0y7ZSXnE7WN-60" target="lhGBUYHMl0y7ZSXnE7WN-66" edge="1">
          <mxGeometry relative="1" as="geometry">
            <Array as="points">
              <mxPoint x="2560" y="345" />
              <mxPoint x="2500" y="345" />
            </Array>
          </mxGeometry>
        </mxCell>
        <mxCell id="lhGBUYHMl0y7ZSXnE7WN-70" style="edgeStyle=orthogonalEdgeStyle;rounded=0;orthogonalLoop=1;jettySize=auto;html=1;" parent="1" source="lhGBUYHMl0y7ZSXnE7WN-60" target="lhGBUYHMl0y7ZSXnE7WN-67" edge="1">
          <mxGeometry relative="1" as="geometry">
            <Array as="points">
              <mxPoint x="2600" y="345" />
              <mxPoint x="2670" y="345" />
            </Array>
          </mxGeometry>
        </mxCell>
        <mxCell id="lhGBUYHMl0y7ZSXnE7WN-60" value="DisplayCode" style="rounded=1;whiteSpace=wrap;html=1;arcSize=0;fontSize=12;fontFamily=Verdana;" parent="1" vertex="1">
          <mxGeometry x="2520" y="240" width="120" height="60" as="geometry" />
        </mxCell>
        <mxCell id="lhGBUYHMl0y7ZSXnE7WN-62" value="ConvertToBinary" style="rounded=1;whiteSpace=wrap;html=1;arcSize=0;fontSize=12;fontFamily=Verdana;" parent="1" vertex="1">
          <mxGeometry x="2660" y="240" width="120" height="60" as="geometry" />
        </mxCell>
        <mxCell id="lhGBUYHMl0y7ZSXnE7WN-66" value="DisplayMemoryLocation" style="rounded=1;whiteSpace=wrap;html=1;arcSize=0;fontSize=12;fontFamily=Verdana;" parent="1" vertex="1">
          <mxGeometry x="2420" y="390" width="160" height="60" as="geometry" />
        </mxCell>
        <mxCell id="lhGBUYHMl0y7ZSXnE7WN-67" value="DisplaySourceCodeLine" style="rounded=1;whiteSpace=wrap;html=1;arcSize=0;fontSize=12;fontFamily=Verdana;" parent="1" vertex="1">
          <mxGeometry x="2590" y="390" width="160" height="60" as="geometry" />
        </mxCell>
        <mxCell id="lhGBUYHMl0y7ZSXnE7WN-74" value="ReportRunTimeError" style="rounded=1;whiteSpace=wrap;html=1;arcSize=0;fontSize=12;fontFamily=Verdana;" parent="1" vertex="1">
          <mxGeometry x="3210" y="240" width="140" height="60" as="geometry" />
        </mxCell>
        <mxCell id="lhGBUYHMl0y7ZSXnE7WN-81" value="DisplayStack" style="rounded=1;whiteSpace=wrap;html=1;arcSize=0;fontSize=12;fontFamily=Verdana;" parent="1" vertex="1">
          <mxGeometry x="3450" y="240" width="120" height="60" as="geometry" />
        </mxCell>
      </root>
    </mxGraphModel>
  </diagram>
</mxfile>
